<svg xmlns="http://www.w3.org/2000/svg" width="124" height="62" viewBox="1.0670000314712524 -0.6189994812011719 117.22899627685547 39.869998931884766" fill="none"><path d="M1.067 0h8.064l5.429 18.808h1.021L21.011 0h8.086l-8.654 25.531h-1.817v13.72h-7.11V25.53H9.699zm31.415 14.946V0h7.109v13.81c0 3.59 1.749 5.566 4.906 5.566 3.135 0 4.906-1.977 4.906-5.565V0h7.088v14.946c0 6.678-4.77 11.108-11.994 11.108-7.268 0-12.015-4.43-12.015-11.108M61.124 0h7.11v2.975C69.574.66 72.572-.568 76.207-.568c6.86 0 11.13 4.089 11.13 10.494v15.605h-7.11v-13.72c0-3.52-1.953-5.633-5.633-5.633-3.294 0-6.11 1.772-6.36 5.952v13.4h-7.11zM91.38 12.737c0-7.905 5.497-13.356 13.47-13.356 7.927 0 13.446 5.474 13.446 13.356s-5.542 13.333-13.447 13.333S91.38 20.619 91.38 12.737m19.761 0c0-3.999-2.476-6.633-6.292-6.633s-6.314 2.634-6.314 6.633c0 4.02 2.521 6.61 6.314 6.61s6.292-2.612 6.292-6.61" fill="#7ccf00"/></svg>