<svg xmlns="http://www.w3.org/2000/svg" width="124" height="62" viewBox="0 0 200 45" fill="none">
  <path d="M1.779,0h13.439l9.048,31.346h1.703l9.048-31.346h13.478l-14.424,42.552h-3.028v22.865h-11.85v-22.865h-3.028L1.779,0Z" fill="#7ccf00" transform="scale(0.6,0.6)"/>
  <path d="M54.136,24.91v-24.91h11.849v23.018c0,5.981,2.915,9.275,8.177,9.275,5.225,0,8.177-3.294,8.177-9.275v-23.018h11.812v24.91c0,11.13-7.95,18.513-19.989,18.513-12.114,0-20.026-7.383-20.026-18.513Z" fill="#7ccf00" transform="scale(0.6,0.6)"/>
  <path d="M101.874,0h11.85v4.959c2.233-3.861,7.23-5.905,13.287-5.905,11.434,0,18.551,6.814,18.551,17.49v26.008h-11.85v-22.866c0-5.868-3.256-9.389-9.389-9.389-5.489,0-10.184,2.953-10.6,9.919v22.336h-11.85v-42.552Z" fill="#7ccf00" transform="scale(0.6,0.6)"/>
  <path d="M152.3,21.228c0-13.175,9.161-22.26,22.449-22.26,13.212,0,22.411,9.124,22.411,22.26s-9.236,22.222-22.411,22.222-22.449-9.085-22.449-22.222ZM185.235,21.228c0-6.664-4.126-11.055-10.486-11.055s-10.524,4.391-10.524,11.055c0,6.7,4.202,11.017,10.524,11.017s10.486-4.354,10.486-11.017Z" fill="#7ccf00" transform="scale(0.6,0.6)"/>
</svg>